# xmcd
#
# Track frame offsets:
#	150
#	12307
#	22240
#	34988
#	45586
#	58465
#	67622
#	78610
#	92657
#	104827
#	115301
#	127749
#
# Disc length: 1889 seconds
#
# Revision: 0
# Processed by: cddbd v1.5.2PL0 Copyright (c) Steve Scherf et al.
# Submitted via: dBpowerAMP V4.0
#
DISCID=a3075f0c
DTITLE=Jim Reeves - The Initimate
DYEAR=1900
DGENRE=Country
TTITLE0=Dark moon
TTITLE1=Oh, how I miss you tonight
TTITLE2=Take me in your arms and hold me
TTITLE3=I'm getting better
TTITLE4=Almost
TTITLE5=You're free to go
TTITLE6=You're the only good thing
TTITLE7=Have I stayed away too long?
TTITLE8=No one to cry to
TTITLE9=I was just walking out the door
TTITLE10=Room full of roses
TTITLE11=We could
EXTD=
EXTT0=
EXTT1=
EXTT2=
EXTT3=
EXTT4=
EXTT5=
EXTT6=
EXTT7=
EXTT8=
EXTT9=
EXTT10=
EXTT11=
PLAYORDER=
